<svg data-v-0dd9719b="" version="1.0" xmlns="http://www.w3.org/2000/svg" xmlns:xlink="http://www.w3.org/1999/xlink" width="100%" height="100%" viewBox="0 0 340.000000 250.000000" preserveAspectRatio="xMidYMid meet" color-interpolation-filters="sRGB" style="margin: auto;"> <rect data-v-0dd9719b="" x="0" y="0" width="100%" height="100%" fill="#fefbf8" fill-opacity="1" class="background"></rect> <rect data-v-0dd9719b="" x="0" y="0" width="100%" height="100%" fill="url(#watermark)" fill-opacity="1" class="watermarklayer"></rect> <g data-v-0dd9719b="" fill="#ef961a" class="bordersvg b-d1" transform="translate(41.464996337890625,78.73200225830078)"><polyline stroke="#ef961a" stroke-width="3" fill-opacity="0" fill="#fefbf8" points="133.53499603271484,30 133.53499603271484,10 10,10 10,92.5359992980957 133.53499603271484,92.5359992980957 133.53499603271484,72.5359992980957"></polyline> <polyline stroke="#ef961a" stroke-width="3" fill-opacity="0" fill="#fefbf8" points="123.53499603271484,10 123.53499603271484,0 0,0 0,82.5359992980957 10,82.5359992980957"></polyline> <g transform="translate(10,30)"><g><rect data-gra="graph-name-bg" stroke-width="2" class="i-icon-bg" x="0" y="0" width="247.0699920654297" height="42.5359992980957" fill-opacity="0"></rect> <!----> <!----> </g> <g transform="translate(10,3)"><g data-gra="path-name" fill-rule="" class="tp-name" transform="translate(0,0)"><g transform="scale(1)"><g><path d="M25.27-21.07C25.24-21.61 25.14-21.91 24.94-21.91 24.73-21.91 24.6-21.71 24.43-21.34L15.86-3.93 6.86-21.37C6.62-21.81 6.52-21.91 6.35-21.91 6.18-21.91 6.05-21.64 5.98-21.07L3.73-2.62C3.56-1.28 3.26-0.47 2.45-0.4 2.08-0.37 2.05-0.37 1.81-0.37 1.51-0.37 1.38-0.24 1.38-0.17 1.38 0.07 1.58 0.1 1.88 0.1 2.72 0.1 4.13 0 4.47 0 4.74 0 6.18 0.1 7.26 0.1 7.63 0.1 7.83 0.07 7.83-0.17 7.83-0.24 7.76-0.34 7.49-0.37 7.16-0.4 6.92-0.4 6.55-0.47 5.88-0.6 5.71-1.11 5.71-1.48 5.71-1.98 5.71-2.29 5.75-2.76L6.99-15.69C7.26-14.99 10.55-8.47 10.75-8.07 10.96-7.76 13.64-2.39 14.18-1.41 14.82-0.27 14.99 0.03 15.19 0.03 15.49 0.03 15.59-0.27 16.23-1.58L23.36-16.03 24.83-1.65C24.9-1.18 24.8-0.77 24.63-0.71 24.47-0.64 24.33-0.5 24.33-0.4 24.33-0.24 24.6-0.17 25.34-0.1 26.41-0.03 30.04 0.1 30.65 0.1 31.02 0.1 31.15 0 31.15-0.17 31.15-0.34 30.85-0.37 30.72-0.37 30.25-0.4 29.57-0.47 29-0.6 27.69-0.91 27.49-2.79 27.39-3.6ZM36.26-8.2C36.26-5.65 36.23-4.27 36.19-3.13 36.13-1.04 35.72-0.6 35.12-0.47 34.88-0.4 34.65-0.37 34.45-0.37 34.28-0.37 34.14-0.27 34.14-0.13 34.14 0.03 34.31 0.1 34.61 0.1 35.42 0.1 36.06 0 36.83 0 38.08 0 39.62 0.07 40.8 0.1 41.97 0.1 42.91 0.17 45.13 0.17 46.24 0.17 46.48 0.1 46.61-0.57 46.71-1.14 46.98-3.26 46.98-3.5 46.98-3.7 46.98-4 46.78-4 46.65-4 46.54-3.86 46.48-3.53 46.21-2.29 45.97-1.61 44.96-1.31 44.12-1.08 43.05-1.11 42.41-1.11 41.27-1.11 40.46-1.18 39.96-1.41 39.25-1.71 39.08-2.35 39.02-3.6 38.98-4.17 39.02-7.12 39.02-8.17L39.02-10.62C39.02-10.75 39.05-10.85 39.25-10.85 39.79-10.85 42.51-10.79 43.28-10.72 44.56-10.62 44.76-10.15 44.9-9.71 44.96-9.44 45-9.11 45-8.91 45-8.67 45.03-8.47 45.2-8.47 45.33-8.47 45.4-8.57 45.44-8.84 45.47-9.28 45.47-9.95 45.57-10.89 45.67-11.86 45.81-12.5 45.81-12.67 45.81-12.84 45.74-12.87 45.67-12.87 45.54-12.87 45.44-12.8 45.3-12.6 45.03-12.23 44.53-12.13 43.76-12.1 43.05-12.03 39.62-12 39.22-12 39.05-12 39.02-12.13 39.02-12.33L39.02-19.96C39.02-20.16 39.08-20.23 39.18-20.23 39.25-20.23 42.58-20.2 43.02-20.16 44.7-20.06 45-19.83 45.2-19.16 45.3-18.92 45.4-18.58 45.44-18.08 45.44-17.84 45.5-17.71 45.67-17.71 45.84-17.71 45.91-17.91 45.91-18.21 45.94-18.85 45.97-19.39 46.01-19.96 46.07-20.8 46.28-21.27 46.28-21.47 46.28-21.64 46.21-21.71 46.14-21.71 46.01-21.71 45.97-21.68 45.77-21.61 45.5-21.51 45.13-21.47 44.46-21.44 43.79-21.41 37.81-21.41 37.64-21.41 35.76-21.44 34.85-21.51 34.18-21.51 33.84-21.51 33.67-21.44 33.67-21.24 33.67-21.14 33.87-21.04 34.11-21.04 34.38-21.04 34.72-21 34.92-20.97 35.89-20.77 36.13-20.3 36.19-19.36 36.26-18.45 36.26-17.64 36.26-13.24ZM74.54-21.07C74.5-21.61 74.4-21.91 74.2-21.91 74-21.91 73.87-21.71 73.7-21.34L65.13-3.93 56.12-21.37C55.89-21.81 55.79-21.91 55.62-21.91 55.45-21.91 55.32-21.64 55.25-21.07L53-2.62C52.83-1.28 52.53-0.47 51.72-0.4 51.35-0.37 51.32-0.37 51.08-0.37 50.78-0.37 50.64-0.24 50.64-0.17 50.64 0.07 50.85 0.1 51.15 0.1 51.99 0.1 53.4 0 53.74 0 54 0 55.45 0.1 56.53 0.1 56.9 0.1 57.1 0.07 57.1-0.17 57.1-0.24 57.03-0.34 56.76-0.37 56.42-0.4 56.19-0.4 55.82-0.47 55.15-0.6 54.98-1.11 54.98-1.48 54.98-1.98 54.98-2.29 55.01-2.76L56.26-15.69C56.53-14.99 59.82-8.47 60.02-8.07 60.22-7.76 62.91-2.39 63.45-1.41 64.09-0.27 64.25 0.03 64.46 0.03 64.76 0.03 64.86-0.27 65.5-1.58L72.62-16.03 74.1-1.65C74.17-1.18 74.07-0.77 73.9-0.71 73.73-0.64 73.6-0.5 73.6-0.4 73.6-0.24 73.87-0.17 74.61-0.1 75.68-0.03 79.31 0.1 79.92 0.1 80.28 0.1 80.42 0 80.42-0.17 80.42-0.34 80.12-0.37 79.98-0.37 79.51-0.4 78.84-0.47 78.27-0.6 76.96-0.91 76.76-2.79 76.66-3.6ZM94.06 0.47C101.22 0.47 105.96-4.77 105.96-11.19 105.96-17.95 100.89-21.91 94.23-21.91 85.93-21.91 82.47-15.22 82.47-10.75 82.47-5.65 85.83 0.47 94.06 0.47ZM94.9-0.67C89.26-0.67 85.59-5.04 85.59-11.63 85.59-17.98 89.36-20.87 94.03-20.87 98.63-20.87 102.8-17.11 102.8-10.35 102.8-1.81 97.16-0.67 94.9-0.67ZM112.75-8.2C112.75-5.68 112.78-2.92 112.61-1.71 112.51-0.91 112.31-0.54 111.74-0.44 111.47-0.37 111.24-0.37 111-0.37 110.8-0.37 110.6-0.27 110.6-0.17 110.6 0.03 110.73 0.1 111.07 0.1 111.98 0.1 113.45 0 113.99 0 114.13 0 116.01 0.1 117.76 0.1 118.09 0.1 118.23 0 118.23-0.17 118.23-0.27 118.09-0.37 117.79-0.37 117.52-0.37 117.15-0.4 116.81-0.44 115.71-0.57 115.6-1.24 115.5-2.05 115.34-3.26 115.34-5.71 115.34-8.4L115.34-8.87C115.34-9.01 115.37-9.04 115.5-9.04L118.97-9.01C119.17-9.01 119.23-8.94 119.37-8.8 119.94-8.1 121.28-6.28 122.59-4.67 124.34-2.42 125.35-0.91 126.76-0.3 127.5 0 128.24 0.1 129.82 0.1L132.17 0.1C132.64 0.1 132.78 0.03 132.78-0.13 132.78-0.27 132.68-0.37 132.41-0.37 132.31-0.37 131.6-0.4 131.37-0.44 130.43-0.57 129.42-0.84 127.8-2.49 126.09-4.27 124.07-6.75 121.62-9.78 124.28-11.93 125.18-14.28 125.18-16.13 125.18-18.42 123.8-19.76 123.17-20.23 121.59-21.34 119.54-21.51 117.65-21.51 116.71-21.51 114.43-21.41 114.13-21.41 114.06-21.41 112.01-21.51 110.56-21.51 110.26-21.51 110.16-21.41 110.16-21.27 110.16-21.14 110.3-21.07 110.53-21.07 110.8-21.07 111.14-21.04 111.34-21 112.38-20.8 112.61-20.3 112.68-19.39 112.75-18.48 112.75-17.68 112.75-13.24ZM115.34-20C115.34-20.16 115.44-20.26 115.54-20.3 115.94-20.4 116.65-20.47 117.49-20.47 120.48-20.47 122.43-18.45 122.43-14.79 122.43-12.64 121.75-11.16 120.75-10.52 120.04-10.05 119.2-10.01 118.5-10.01 117.29-10.01 115.94-10.22 115.5-10.45 115.37-10.52 115.34-10.69 115.34-10.85ZM134.53-8.2C134.53-5.68 134.53-3.29 134.36-2.08 134.26-1.28 134.16-0.6 133.58-0.47 133.32-0.4 132.95-0.37 132.78-0.37 132.48-0.37 132.34-0.27 132.34-0.13 132.34 0.03 132.58 0.1 132.88 0.1 133.82 0.1 135.8 0 135.9 0 136.07 0 138.02 0.1 139.73 0.1 140.07 0.1 140.2 0 140.2-0.13 140.2-0.27 140.14-0.34 139.83-0.37 139.7-0.37 138.99-0.4 138.56-0.5 137.68-0.71 137.55-1.08 137.42-2.05 137.25-3.26 137.28-5.61 137.28-8.2L137.28-13.24C137.28-17.68 137.25-18.45 137.31-19.36 137.38-20.33 137.48-20.84 138.46-20.97 138.69-21 138.86-21 139.06-21.04 139.33-21.07 139.43-21.14 139.43-21.27 139.43-21.44 139.26-21.51 138.93-21.51 137.99-21.51 136.04-21.41 135.9-21.41 135.8-21.41 133.89-21.51 132.84-21.51 132.48-21.51 132.34-21.44 132.34-21.27 132.34-21.14 132.48-21.07 132.71-21.04 132.91-21 133.15-21 133.48-20.94 134.19-20.8 134.39-20.3 134.46-19.39 134.53-18.48 134.53-17.68 134.53-13.24ZM148.3-1.24C152.77-7.76 156.81-13.98 161.24-20.67 161.41-20.9 161.48-21.07 161.48-21.21 161.48-21.41 161.24-21.41 160.81-21.41L152.61-21.41C152.2-21.41 150.72-21.41 147.53-21.51 146.66-21.54 146.49-21.71 146.19-21.71 145.98-21.71 145.92-21.58 145.85-21.14 145.72-20.26 145.28-17.58 145.28-17.21 145.28-16.97 145.31-16.8 145.45-16.8 145.58-16.8 145.68-16.9 145.78-17.34 145.95-18.15 146.22-19.49 147.26-19.86 148.3-20.23 149.92-20.23 151.73-20.23L157.88-20.23C153.82-13.71 149.51-7.53 145.11-1.04 144.77-0.54 144.71-0.4 144.71-0.24 144.71-0.03 144.88 0 145.25 0 150.52 0 155.29 0.13 160.23 0.13 160.97 0.13 161.01 0.1 161.24-0.67 161.44-1.38 161.85-3.23 161.85-4.17 161.85-4.5 161.81-4.67 161.61-4.67 161.48-4.67 161.41-4.47 161.34-4.2 161.24-3.7 161.17-3.23 160.84-2.62 160.3-1.55 159.12-1.24 156.1-1.24ZM168.27-8.2C168.27-5.68 168.27-3.29 168.1-2.08 168-1.28 167.9-0.6 167.32-0.47 167.06-0.4 166.69-0.37 166.52-0.37 166.22-0.37 166.08-0.27 166.08-0.13 166.08 0.03 166.32 0.1 166.62 0.1 167.56 0.1 169.54 0 169.64 0 169.81 0 171.76 0.1 173.47 0.1 173.81 0.1 173.95 0 173.95-0.13 173.95-0.27 173.88-0.34 173.58-0.37 173.44-0.37 172.74-0.4 172.3-0.5 171.42-0.71 171.29-1.08 171.16-2.05 170.99-3.26 171.02-5.61 171.02-8.2L171.02-13.24C171.02-17.68 170.99-18.45 171.05-19.36 171.12-20.33 171.22-20.84 172.2-20.97 172.43-21 172.6-21 172.8-21.04 173.07-21.07 173.17-21.14 173.17-21.27 173.17-21.44 173-21.51 172.67-21.51 171.73-21.51 169.78-21.41 169.64-21.41 169.54-21.41 167.63-21.51 166.59-21.51 166.22-21.51 166.08-21.44 166.08-21.27 166.08-21.14 166.22-21.07 166.45-21.04 166.65-21 166.89-21 167.22-20.94 167.93-20.8 168.13-20.3 168.2-19.39 168.27-18.48 168.27-17.68 168.27-13.24ZM180.53-4.1C180.53-1.65 180.36-0.74 179.62-0.5 179.19-0.37 178.82-0.37 178.58-0.37 178.25-0.37 178.11-0.27 178.11-0.13 178.11 0.07 178.31 0.1 178.62 0.1 180.06 0.1 181.3 0 181.54 0 181.78 0 182.99 0.1 184.8 0.1 185.17 0.1 185.34 0.03 185.34-0.13 185.34-0.27 185.2-0.37 184.93-0.37 184.67-0.37 184.09-0.37 183.56-0.5 182.72-0.71 182.51-1.58 182.45-3.9L182.01-17.04C182.85-16.16 186.21-12.67 189.71-9.04 192.63-6.18 197.3-1.55 197.44-1.48 199.08 0.07 199.42 0.3 199.65 0.3 199.89 0.3 199.96 0.13 199.96-1.55L200.02-18.42C200.02-20.43 200.26-20.77 201.03-20.94 201.4-21 201.67-21 201.87-21.04 202.07-21.07 202.17-21.17 202.17-21.31 202.17-21.47 202.07-21.51 201.7-21.51 200.39-21.51 199.35-21.41 199.02-21.41 198.71-21.41 197.3-21.51 195.86-21.51 195.52-21.51 195.25-21.47 195.25-21.31 195.25-21.17 195.32-21.04 195.65-21.04 195.89-21.04 196.39-21 196.97-20.9 197.87-20.67 198.07-20.06 198.11-18.25L198.48-4.27C197.6-5.07 194.24-8.54 191.62-11.09 186.92-15.9 182.25-20.67 181.94-21 181.71-21.24 181.14-21.91 180.9-21.91 180.63-21.91 180.53-21.58 180.53-20.53 180.57-14.95 180.53-20.13 180.53-4.1ZM226.34-5.41C226.34-6.62 226.34-7.46 226.4-8.44 226.47-9.41 226.67-10.01 227.48-10.12 227.75-10.15 227.82-10.15 228.05-10.15 228.35-10.15 228.45-10.28 228.45-10.38 228.45-10.55 228.32-10.62 227.98-10.62 227.08-10.62 225.09-10.55 224.96-10.55 224.82-10.55 222.88-10.62 221.53-10.62 221.16-10.62 221.03-10.55 221.03-10.38 221.03-10.28 221.16-10.15 221.43-10.15 221.7-10.15 222.04-10.12 222.24-10.08 223.41-9.91 223.58-9.48 223.58-7.26L223.58-2.42C223.58-1.95 223.35-1.61 223.01-1.41 222.24-1.01 220.76-0.84 219.82-0.84 216.89-0.84 214.41-1.81 212.19-3.97 211.32-4.81 209.13-7.76 209.13-11.76 209.13-15.09 210.24-17.64 211.95-18.95 214.21-20.67 216.32-20.73 218.14-20.73 221.9-20.73 224.32-19.49 225.09-18.38 225.6-17.64 225.73-16.6 225.73-16.3 225.77-16.1 225.8-15.9 225.97-15.9 226.2-15.9 226.24-16.03 226.24-16.5 226.24-19.46 226.47-20.47 226.47-20.87 226.47-21 226.47-21.14 226.2-21.14 225.5-21.17 224.19-21.34 223.65-21.44 222.44-21.64 220.99-21.91 218.84-21.91 216.79-21.91 213.94-21.71 211.35-20.2 208.59-18.55 206.27-15.29 206.27-10.72 206.27-6.89 208.09-4.07 209.9-2.55 213.33 0.3 217.57 0.47 219.75 0.47 221.4 0.47 224.09 0.13 225.93-0.81 226.3-1.01 226.34-1.04 226.34-2.39Z" transform="translate(-1.3799999952316284, 21.90999984741211)"></path></g> <!----> <!----> <!----> <!----> <!----> <!----> <!----></g></g> <g data-gra="path-slogan" fill-rule="" class="tp-slogan" transform="translate(94.8649959564209,28.3799991607666)"><!----> <!----> <g transform="scale(1, 1)"><g transform="scale(1)"><path d="M0.28-7.87L1.94 0L3.13 0L4.30-4.74C4.36-5.04 4.43-5.34 4.49-5.63C4.56-5.93 4.63-6.22 4.69-6.53L4.74-6.53C4.80-6.22 4.87-5.93 4.93-5.63C4.99-5.34 5.05-5.04 5.12-4.74L6.31 0L7.51 0L9.14-7.87L8.18-7.87L7.36-3.59C7.28-3.16 7.20-2.74 7.13-2.32C7.06-1.90 6.98-1.48 6.91-1.04L6.86-1.04C6.77-1.48 6.67-1.90 6.58-2.33C6.48-2.75 6.38-3.17 6.29-3.59L5.20-7.87L4.28-7.87L3.19-3.59C3.10-3.16 3.01-2.74 2.92-2.32C2.82-1.90 2.73-1.48 2.64-1.04L2.59-1.04C2.52-1.48 2.44-1.90 2.36-2.32C2.28-2.73 2.21-3.16 2.14-3.59L1.31-7.87ZM13.34 0.14C13.84 0.14 14.29 0.05 14.71-0.14C15.12-0.34 15.47-0.61 15.77-0.97C16.07-1.32 16.31-1.75 16.47-2.26C16.63-2.77 16.72-3.34 16.72-3.97C16.72-4.60 16.63-5.16 16.47-5.66C16.31-6.16 16.07-6.58 15.77-6.93C15.47-7.28 15.12-7.55 14.71-7.73C14.29-7.92 13.84-8.02 13.34-8.02C12.85-8.02 12.39-7.92 11.98-7.74C11.57-7.56 11.22-7.29 10.92-6.94C10.62-6.59 10.39-6.17 10.23-5.67C10.07-5.17 9.98-4.60 9.98-3.97C9.98-3.34 10.07-2.77 10.23-2.26C10.39-1.75 10.62-1.32 10.92-0.97C11.22-0.61 11.57-0.34 11.98-0.14C12.39 0.05 12.85 0.14 13.34 0.14ZM13.34-0.73C12.99-0.73 12.67-0.81 12.39-0.96C12.11-1.11 11.86-1.33 11.66-1.61C11.45-1.90 11.30-2.24 11.18-2.63C11.07-3.03 11.02-3.48 11.02-3.97C11.02-4.46 11.07-4.90 11.18-5.29C11.30-5.68 11.45-6.02 11.66-6.29C11.86-6.56 12.11-6.77 12.39-6.92C12.67-7.07 12.99-7.14 13.34-7.14C13.70-7.14 14.01-7.07 14.30-6.92C14.58-6.77 14.83-6.56 15.03-6.29C15.23-6.02 15.39-5.68 15.50-5.29C15.62-4.90 15.67-4.46 15.67-3.97C15.67-3.48 15.62-3.03 15.50-2.63C15.39-2.24 15.23-1.90 15.03-1.61C14.83-1.33 14.58-1.11 14.30-0.96C14.01-0.81 13.70-0.73 13.34-0.73ZM19.40-4.14L19.40-7.07L20.72-7.07C21.34-7.07 21.81-6.96 22.14-6.76C22.47-6.55 22.63-6.18 22.63-5.66C22.63-5.15 22.47-4.77 22.14-4.52C21.81-4.27 21.34-4.14 20.72-4.14ZM22.73 0L23.86 0L21.86-3.43C22.40-3.57 22.83-3.82 23.15-4.19C23.47-4.56 23.63-5.05 23.63-5.66C23.63-6.07 23.56-6.42 23.42-6.70C23.29-6.98 23.10-7.20 22.85-7.38C22.61-7.56 22.32-7.68 21.98-7.76C21.64-7.83 21.27-7.87 20.87-7.87L18.41-7.87L18.41 0L19.40 0L19.40-3.32L20.83-3.32ZM25.38-7.87L25.38 0L27.40 0C27.99 0 28.51-0.09 28.97-0.27C29.42-0.45 29.81-0.71 30.12-1.05C30.43-1.39 30.67-1.81 30.83-2.30C30.99-2.79 31.07-3.35 31.07-3.97C31.07-5.23 30.75-6.19 30.12-6.86C29.49-7.54 28.56-7.87 27.35-7.87ZM27.28-0.82L26.38-0.82L26.38-7.06L27.28-7.06C28.20-7.06 28.89-6.79 29.35-6.26C29.81-5.74 30.04-4.97 30.04-3.97C30.04-2.97 29.81-2.20 29.35-1.64C28.89-1.09 28.20-0.82 27.28-0.82ZM32.78-1.72L32.18-1.02C32.53-0.66 32.94-0.38 33.41-0.17C33.88 0.04 34.39 0.14 34.94 0.14C35.36 0.14 35.73 0.09 36.06-0.03C36.39-0.15 36.67-0.31 36.90-0.51C37.13-0.71 37.31-0.95 37.43-1.22C37.56-1.50 37.62-1.79 37.62-2.10C37.62-2.39 37.58-2.64 37.49-2.86C37.41-3.08 37.30-3.27 37.15-3.44C37.01-3.60 36.84-3.75 36.64-3.87C36.44-3.99 36.22-4.10 36-4.20L34.88-4.68C34.72-4.74 34.57-4.81 34.42-4.89C34.26-4.97 34.12-5.05 34.00-5.15C33.87-5.25 33.77-5.37 33.69-5.50C33.61-5.63 33.58-5.80 33.58-5.99C33.58-6.35 33.71-6.63 33.98-6.83C34.25-7.04 34.60-7.14 35.04-7.14C35.41-7.14 35.74-7.07 36.03-6.94C36.32-6.81 36.59-6.63 36.83-6.40L37.37-7.04C37.09-7.33 36.75-7.57 36.35-7.75C35.95-7.93 35.51-8.02 35.04-8.02C34.68-8.02 34.35-7.96 34.05-7.86C33.75-7.76 33.49-7.61 33.27-7.42C33.05-7.23 32.88-7.01 32.75-6.76C32.63-6.50 32.57-6.22 32.57-5.93C32.57-5.64 32.62-5.39 32.71-5.17C32.81-4.95 32.93-4.76 33.08-4.60C33.24-4.44 33.41-4.30 33.60-4.19C33.79-4.08 33.98-3.98 34.16-3.90L35.29-3.41C35.48-3.32 35.65-3.24 35.81-3.16C35.97-3.08 36.11-2.99 36.22-2.89C36.34-2.79 36.43-2.67 36.50-2.53C36.57-2.39 36.60-2.22 36.60-2.02C36.60-1.63 36.46-1.32 36.17-1.09C35.88-0.85 35.48-0.73 34.96-0.73C34.55-0.73 34.15-0.82 33.77-1.00C33.39-1.18 33.06-1.42 32.78-1.72Z" transform="translate(-0.276, 8.016)"></path></g></g></g></g></g></g><defs v-gra="od"></defs></svg>